<svg width="418" height="290" viewBox="0 0 418 290" fill="none" xmlns="http://www.w3.org/2000/svg">
<path d="M96.0546 5.49792C36.797 27.4806 0.477883 80.0477 0 144.562C0 270.723 149.577 336.671 243.243 251.608C277.172 220.068 291.031 189.483 290.553 142.173C290.553 86.2602 264.747 41.8171 216.481 15.5335C195.454 4.06427 183.985 1.67485 152.445 0.241202C127.595 -0.714565 108.002 1.19697 96.0546 5.49792ZM205.968 20.7902C304.89 67.6228 308.235 210.51 211.702 264.033C188.764 276.936 181.596 278.369 145.277 278.369C112.78 278.369 100.833 275.98 85.5411 267.856C16.7259 231.059 -10.5134 151.252 22.4605 83.3929C42.5316 43.2507 79.3286 15.0556 120.904 8.8431C152.445 4.06427 177.295 7.40945 205.968 20.7902Z" fill="white"/>
<path d="M117.081 30.3475C86.4969 69.056 137.153 117.322 171.56 82.4368C196.888 57.5868 180.162 17.9225 144.321 17.9225C130.94 17.9225 124.25 21.2677 117.081 30.3475ZM156.268 27.958C169.649 35.1263 173.95 41.3388 173.95 55.6753C173.95 70.4897 161.047 84.8262 148.144 84.8262C131.896 84.8262 116.604 71.4454 116.604 57.1089C116.604 41.8167 120.427 35.6042 133.329 28.4359C145.277 21.7456 143.843 21.7456 156.268 27.958Z" fill="white"/>
<path d="M42.5316 72.8789C7.64612 107.286 55.9123 157.942 94.6209 127.358C104.179 119.711 107.046 113.499 107.046 99.6403C107.046 64.277 67.3815 47.5511 42.5316 72.8789ZM89.8421 78.1356C107.046 94.8615 93.1873 127.835 69.771 127.835C43.9653 127.835 31.0624 98.2067 48.2662 79.0913C57.8239 68.5779 79.8065 67.6221 89.8421 78.1356Z" fill="white"/>
<path d="M194.021 71.9233C171.56 95.8175 189.242 137.393 221.738 137.393C241.331 137.393 259.969 118.756 259.969 99.1627C259.969 66.1887 216.481 48.0291 194.021 71.9233ZM241.809 78.6137C259.969 94.8617 247.066 127.836 222.694 127.836C196.888 127.836 183.985 98.2069 201.189 79.0916C210.747 68.5781 230.34 68.1002 241.809 78.6137Z" fill="white"/>
<path d="M127.117 124.012C116.126 137.393 118.515 159.376 131.418 166.066C156.268 179.447 182.074 152.685 166.781 129.747C158.657 117.322 135.719 113.977 127.117 124.012ZM159.135 134.526C166.781 144.083 157.702 161.287 145.277 161.287C132.852 161.287 123.772 144.083 131.418 134.526C134.285 130.703 140.498 127.835 145.277 127.835C150.055 127.835 156.268 130.703 159.135 134.526Z" fill="white"/>
<path d="M52.0892 152.686C28.6729 166.066 23.8941 191.394 41.5758 210.988C65.9478 238.227 107.046 223.412 107.046 187.571C107.046 156.987 77.4171 138.349 52.0892 152.686ZM89.842 165.589C102.745 179.925 98.4439 205.253 81.2401 213.377C69.293 219.112 66.4257 218.634 54.9565 210.51C39.1864 198.085 36.3191 179.447 49.2219 166.544C61.6469 154.119 79.3286 153.642 89.842 165.589Z" fill="white"/>
<path d="M195.454 158.898C159.613 194.739 211.702 247.784 248.499 213.377C272.871 190.438 255.19 146.951 221.738 146.951C212.658 146.951 202.623 151.252 195.454 158.898ZM239.897 164.155C250.411 171.323 254.234 191.394 246.588 202.385C239.42 213.377 222.694 218.633 210.747 214.332C182.074 203.341 190.675 156.508 221.738 156.508C226.039 156.508 234.163 159.854 239.897 164.155Z" fill="white"/>
<path d="M128.551 195.695C95.5767 214.332 101.789 257.342 139.064 268.333C151.489 272.156 176.339 260.687 180.64 249.696C188.764 227.713 182.551 206.208 163.914 197.129C148.144 188.527 141.453 188.527 128.551 195.695ZM163.436 207.164C185.419 222.456 171.56 261.643 144.321 261.643C131.896 261.643 116.604 244.439 116.604 230.58C116.604 216.722 131.896 199.518 144.321 199.518C149.1 199.518 157.701 202.863 163.436 207.164Z" fill="white"/>
<path d="M384.218 156.031C356.023 161.765 339.297 173.712 307.757 209.076C291.031 227.713 268.57 247.784 258.057 253.041C247.066 258.776 240.853 264.032 244.198 264.988C256.145 269.289 284.818 250.174 308.713 221.501C345.51 178.969 358.412 169.889 390.431 164.155C407.157 160.809 408.112 161.765 408.112 173.234C408.112 180.881 404.767 186.615 399.988 188.049C370.36 197.606 359.368 204.775 329.262 233.448C287.686 272.634 281.951 275.979 240.375 279.324C222.216 280.758 205.968 284.103 204.056 286.971C202.145 290.316 213.614 290.794 237.03 288.882C281.951 285.537 305.367 274.068 331.651 243.005C349.811 221.501 368.926 209.076 404.767 195.217C416.714 190.438 418.148 187.571 416.714 172.279C415.281 152.685 411.457 150.774 384.218 156.031Z" fill="white"/>
</svg>
