<svg width="168" height="270" viewBox="0 0 168 270" fill="none" xmlns="http://www.w3.org/2000/svg">
<path d="M108.62 3.87178C93.5542 7.20759 90.247 9.8021 84.0001 22.0334C75.9158 37.6005 75.1809 40.195 79.5905 40.195C81.4278 40.195 85.4699 34.6353 88.7771 27.593C93.5542 16.8443 97.2289 14.2498 113.397 10.914C136.18 6.09565 143.897 5.72501 141.325 10.1727C140.222 12.026 131.771 14.6205 122.584 15.7324C110.458 17.5856 104.211 20.9214 99.8011 27.593C92.4518 39.083 97.2289 44.6427 105.313 33.894C108.988 29.4463 118.542 24.2572 127.729 22.0334C146.102 17.9563 151.981 13.5085 149.042 5.35436C146.469 -1.31724 135.445 -1.68789 108.62 3.87178Z" fill="white"/>
<path d="M57.1749 50.2023C51.2954 55.762 56.0725 56.8739 83.9999 56.8739C104.946 56.8739 113.397 55.3913 113.397 52.0555C113.397 49.0904 105.68 47.6078 86.5722 47.6078C71.5061 47.6078 58.2773 48.7197 57.1749 50.2023Z" fill="white"/>
<path d="M3.89229 65.7697C0.585092 67.6229 -0.517308 74.6652 0.217625 85.0432L1.32002 101.352H166.68L167.782 85.0432C168.517 74.6652 167.415 67.6229 164.108 65.7697C157.861 61.6926 10.1392 61.6926 3.89229 65.7697ZM163.005 93.9387L85.1024 95.0506L6.83202 95.7919V69.8468L85.1024 70.5881L163.005 71.7V93.9387Z" fill="white"/>
<path d="M14.1812 114.324C14.1812 128.038 35.1268 261.841 38.0666 266.289C41.3738 271.478 126.993 271.107 130.301 265.918C132.873 261.1 153.819 128.409 153.819 114.695C153.819 89.8617 147.204 118.772 137.283 185.859L126.259 260.729L85.1023 261.841C48.3556 262.582 43.946 262.211 42.1087 256.281C41.0063 252.575 35.8618 218.846 30.3498 181.04C24.8378 143.235 18.9583 110.988 17.4884 108.765C15.6511 106.911 14.1812 109.135 14.1812 114.324Z" fill="white"/>
<path d="M34.392 136.562C35.8619 138.786 57.1749 140.269 86.2048 140.269C116.705 140.269 135.445 138.786 135.445 136.562C135.445 134.339 115.602 132.856 83.6325 132.856C50.1931 132.856 32.9222 134.339 34.392 136.562Z" fill="white"/>
<path d="M39.9039 188.453C39.9039 190.677 57.1749 192.159 83.9999 192.159C110.825 192.159 128.096 190.677 128.096 188.453C128.096 186.229 110.825 184.746 83.9999 184.746C57.1749 184.746 39.9039 186.229 39.9039 188.453Z" fill="white"/>
</svg>
