<svg width="326" height="335" viewBox="0 0 326 335" fill="none" xmlns="http://www.w3.org/2000/svg">
<path d="M266.94 1.77495C264.763 2.64559 232.114 11.352 195.112 21.3643C158.11 30.9414 124.155 40.0831 119.802 41.389C107.178 45.3069 116.319 51.8367 130.25 48.7895L143.309 46.1776L125.461 76.2146C115.449 92.7568 106.307 106.687 105.872 107.558C103.26 110.605 54.9392 121.923 53.1979 120.182C49.7154 117.135 82.7997 64.8963 91.9414 58.3665C108.484 47.0482 96.7299 47.0482 54.0686 58.8018C-3.82895 74.9087 -4.26427 75.344 3.57149 107.122C7.92469 124.1 10.1013 163.714 11.4072 227.706C12.2779 288.215 14.4545 325.653 17.5017 329.135C20.9843 333.489 53.1979 334.795 167.252 334.795C340.074 334.795 325.708 340.454 325.708 270.803C325.708 243.813 323.967 225.965 321.355 225.965C318.743 225.965 317.002 243.813 317.002 270.367C317.002 295.18 315.26 317.817 313.519 320.864C310.472 324.782 278.258 326.088 166.381 325.217L23.1609 323.912L20.549 208.552H325.708V138.901H183.359C105.436 138.901 42.3149 137.595 44.0562 136.289C45.3622 134.983 52.7626 132.371 61.0337 130.194C94.5533 122.359 310.472 63.5903 312.213 62.2844C315.696 58.8018 303.071 12.2226 296.977 6.12815C290.883 0.033669 277.388 -1.70761 266.94 1.77495ZM266.069 38.7771C249.962 68.8142 249.092 69.6848 223.408 77.5206C209.042 81.4385 196.418 83.6151 195.983 81.4385C195.112 79.6972 201.642 65.3316 210.784 50.0954C225.585 24.4116 228.632 21.7997 249.092 15.7052C283.917 5.69283 284.353 5.69283 266.069 38.7771ZM296.542 28.7648C297.848 35.7299 300.024 44.001 301.766 47.9188C303.507 53.1427 300.024 56.1899 286.094 60.1078C276.517 63.155 267.375 64.461 266.069 63.5903C263.893 60.9784 287.4 17.0111 291.318 17.0111C293.059 17.0111 295.236 22.235 296.542 28.7648ZM199.03 50.5308C191.63 64.461 182.923 78.8265 180.747 82.7444C176.829 89.2742 126.767 106.687 122.849 103.204C122.414 102.334 129.379 87.9683 138.521 71.4261C155.063 42.2597 155.933 40.9537 180.747 33.9886C194.677 30.0707 207.736 26.5882 209.478 26.1529C211.654 26.1529 206.866 37.0358 199.03 50.5308ZM68.8694 67.9435C68.8694 69.6848 61.0337 84.0504 51.4567 100.593C29.2554 138.03 19.6783 139.771 12.2779 107.993C9.23065 96.2393 8.36001 84.921 10.1013 83.1797C12.7132 80.5678 57.1158 66.2023 65.8222 65.3316C67.5635 64.8963 68.8694 66.2023 68.8694 67.9435ZM75.3992 173.726C54.0686 195.057 47.1035 199.845 35.3498 199.845C21.8549 199.845 20.9843 198.975 20.9843 183.739C20.9843 173.291 24.4668 164.149 30.5613 157.619C38.3971 148.913 44.0562 147.607 70.6107 147.607H101.083L75.3992 173.726ZM123.72 199.845H62.775L114.143 147.607H175.087L123.72 199.845ZM197.724 199.845H136.779L188.147 147.607H249.092L197.724 199.845ZM312.648 151.09C312.648 152.831 303.071 164.585 290.883 177.209L269.117 199.845H210.784L236.468 173.726C262.151 147.607 262.587 147.607 287.4 147.607C301.33 147.607 312.648 149.348 312.648 151.09ZM317.002 187.221C317.002 198.975 315.696 199.845 301.766 199.845C283.482 199.845 283.047 196.798 298.718 181.997C312.648 168.502 317.002 169.808 317.002 187.221Z" fill="white"/>
</svg>
