<svg width="335" height="307" viewBox="0 0 335 307" fill="none" xmlns="http://www.w3.org/2000/svg">
<path d="M28.3886 6.62917C24.6005 10.8908 23.18 37.881 24.127 92.8083L25.5476 172.832H309.655L311.075 92.8083C312.022 37.881 310.602 10.8908 306.814 6.62917C302.552 1.42054 275.562 0 167.601 0C59.6404 0 32.6502 1.42054 28.3886 6.62917ZM301.605 88.5467L300.185 168.097H35.0178L33.5973 88.5467L32.6502 9.47024H302.552L301.605 88.5467Z" fill="white"/>
<path d="M40.7001 206.924C38.806 208.345 37.3855 220.183 37.3855 232.494V255.223L19.8655 256.643C2.81909 258.064 1.87207 259.011 0.451535 276.531C-1.91603 305.415 5.66017 314.411 8.50124 286.474L11.3423 262.799H29.3358L46.8557 262.325V282.213C46.8557 293.577 49.2233 303.994 51.5908 305.415C54.4319 307.309 56.326 298.312 56.326 282.213C56.326 260.905 54.9054 255.696 48.7498 255.696C43.5411 255.696 42.1206 253.328 44.0146 248.12C45.4352 243.858 46.8557 234.388 46.8557 226.812C46.8557 213.08 47.8027 212.606 64.8492 214.027C81.4221 215.447 82.3691 216.395 83.7897 233.441C85.6837 256.17 94.2069 251.434 94.2069 227.285C94.2069 215.447 91.8394 208.345 86.6307 206.451C76.687 202.663 44.4882 202.663 40.7001 206.924Z" fill="white"/>
<path d="M109.833 206.451C102.73 209.766 101.783 244.332 108.412 248.594C111.253 250.488 113.147 243.859 113.147 232.494V213.081H132.088C150.555 213.081 151.028 213.554 151.028 229.18C151.028 238.177 153.396 247.173 156.237 248.594C159.552 250.961 160.499 244.332 159.552 228.706L158.131 205.978L136.823 205.031C124.985 204.557 112.674 205.031 109.833 206.451Z" fill="white"/>
<path d="M178.018 206.451C172.81 212.133 174.23 251.908 179.439 248.593C182.28 247.173 184.174 238.176 184.174 229.179C184.174 213.553 184.648 213.08 203.114 213.08H222.055V232.02C222.055 242.438 224.423 250.961 227.264 250.961C230.105 250.961 231.525 241.964 230.578 228.232L229.158 205.977L205.482 204.557C192.224 203.61 179.912 204.557 178.018 206.451Z" fill="white"/>
<path d="M247.151 209.292C244.31 212.607 242.416 224.445 243.363 235.335L244.784 255.696H207.85V279.372C207.85 308.256 216.373 311.097 218.267 282.687C219.688 263.273 220.161 262.799 237.681 262.326L255.201 261.852V282.213C255.201 293.577 257.569 303.048 259.936 303.048C262.777 303.048 264.671 292.157 264.671 279.372C264.671 260.905 262.777 255.696 257.095 255.696C251.413 255.696 250.466 251.435 251.413 235.335C252.833 215.448 252.833 215.448 271.774 215.448C289.767 215.448 290.714 215.921 291.188 230.6C291.188 239.124 293.082 247.647 294.976 249.541C296.87 251.435 297.817 242.438 296.87 229.653L295.45 205.978L273.668 204.557C259.936 203.61 249.992 205.504 247.151 209.292Z" fill="white"/>
<path d="M70.5313 279.372C70.5313 292.157 72.8988 303.048 75.2664 303.048C78.1075 303.048 80.0015 294.051 80.0015 282.687C80.0015 260.905 79.528 261.379 112.2 264.693C115.515 265.167 117.882 272.269 117.882 284.107C117.882 294.524 120.25 303.048 122.618 303.048C125.459 303.048 127.353 292.157 127.353 279.372V255.696H70.5313V279.372Z" fill="white"/>
<path d="M141.558 282.213C141.558 313.938 144.873 314.885 147.714 284.107C149.608 263.272 149.608 263.272 168.075 263.272H186.542L189.383 286.474C192.224 314.411 199.8 304.941 197.433 276.53L196.012 258.063L141.558 255.222V282.213Z" fill="white"/>
<path d="M278.877 281.739C278.877 298.312 280.771 307.308 283.612 305.414C286.453 303.994 288.347 293.577 288.347 282.686V262.325L326.228 266.113V287.895C326.228 303.52 327.648 308.256 331.436 304.467C333.804 302.1 335.698 290.262 334.751 278.898L333.331 258.063L278.877 255.222V281.739Z" fill="white"/>
</svg>
