<svg width="440" height="299" viewBox="0 0 440 299" fill="none" xmlns="http://www.w3.org/2000/svg">
<path d="M84.288 10.097C74.5155 21.091 42.7549 111.487 42.7549 127.978C42.7549 145.08 53.7489 124.924 67.1861 82.1692C85.5096 24.1449 94.0605 11.9293 116.049 11.9293C125.821 11.9293 135.594 14.3725 137.426 18.0371C139.258 21.091 144.145 24.145 147.809 24.145C151.474 24.145 149.642 18.6479 143.534 11.9293C129.486 -3.34021 97.1144 -3.95099 84.288 10.097Z" fill="white"/>
<path d="M295.618 8.26427C289.51 13.1505 285.846 19.2583 288.9 21.7015C291.343 24.1446 296.84 22.923 300.504 19.2583C310.277 9.48583 338.984 10.0966 346.313 19.2583C349.978 23.5338 360.361 49.7974 368.912 77.2826C383.571 120.648 397.008 146.301 397.008 129.81C397.008 113.319 359.139 13.7613 350.588 7.65349C336.54 -2.7298 310.888 -2.11901 295.618 8.26427Z" fill="white"/>
<path d="M10.9941 146.912C1.83234 152.409 0 162.792 0 218.373C0 261.739 2.44313 286.781 7.32938 291.667C12.2156 296.553 41.5331 298.996 98.3358 298.996C194.228 298.996 196.061 298.386 207.666 250.134C211.941 233.643 216.827 219.595 219.271 219.595C221.714 219.595 227.211 234.864 231.486 253.188C236.372 273.954 243.091 289.224 250.42 292.889C256.528 296.553 297.451 298.996 341.427 298.996C441.595 298.996 439.763 300.829 439.763 220.206C439.763 170.122 437.93 158.517 428.769 150.577C418.385 141.415 395.176 140.193 219.271 140.193C96.5034 140.193 17.1019 142.636 10.9941 146.912ZM420.218 157.295C425.715 160.96 427.547 178.672 426.325 223.26L424.493 283.727L342.648 285.559C297.451 286.17 258.361 284.948 255.307 281.895C252.253 278.841 245.534 258.685 239.426 237.307C225.378 184.78 214.995 186.002 198.504 240.972L185.678 283.727L103.222 285.559C5.49703 287.392 6.10781 288.002 6.10781 220.816C6.10781 146.301 -12.2156 152.409 215.606 152.409C323.714 152.409 415.942 154.852 420.218 157.295Z" fill="white"/>
<path d="M43.3654 179.284C39.0899 184.781 36.6468 203.715 37.8684 226.925L39.7007 265.404L102 267.236C171.019 269.069 164.911 273.344 177.127 217.152C186.288 173.787 182.013 170.733 109.941 170.733C65.9643 170.733 48.2517 173.176 43.3654 179.284ZM169.186 196.386C167.354 204.326 163.689 220.817 161.857 233.032L157.582 256.242H48.8624V182.948H110.551C171.63 182.948 172.24 182.948 169.186 196.386Z" fill="white"/>
<path d="M262.636 179.894C255.306 189.055 255.917 193.942 269.354 245.858L275.462 269.068L400.062 265.403L401.894 226.924C403.116 203.714 400.672 184.78 396.397 179.283C386.014 166.457 273.019 167.067 262.636 179.894ZM390.9 256.241H282.792L276.073 225.092C271.798 207.99 268.744 191.499 268.744 188.445C268.744 185.391 296.229 182.948 329.822 182.948H390.9V256.241Z" fill="white"/>
</svg>
