<svg width="315" height="297" viewBox="0 0 315 297" fill="none" xmlns="http://www.w3.org/2000/svg">
<path d="M0 25.8256C0 51.2208 5.16512 60.2597 9.89981 42.6122C12.0519 34.8646 15.0649 34.0037 34.8646 35.295L58.1076 36.5863V83.9332L33.5733 85.2245C9.03896 86.5158 8.60853 86.0854 8.60853 75.3247C8.60853 68.8683 6.88683 64.9944 4.30427 66.7161C1.72171 68.4379 0 111.911 0 183.362C0 256.104 1.72171 296.994 4.30427 296.994C6.88683 296.994 8.60853 290.968 8.60853 284.082V271.169H34.4341C52.9425 271.169 60.2597 272.891 59.8293 276.334C58.538 287.956 60.2597 296.994 64.564 296.994C67.1466 296.994 68.8683 285.373 68.8683 271.169V245.343H245.343V271.169C245.343 285.373 247.065 296.994 249.647 296.994C252.23 296.994 253.952 290.968 253.952 284.082V271.169H305.603V284.082C305.603 290.968 307.755 296.994 309.907 296.994C315.503 296.994 315.503 246.635 310.338 243.191C308.186 241.9 305.603 245.343 304.742 250.508C303.451 259.547 301.299 260.408 279.777 260.408H256.104V213.061L278.917 211.77C299.147 210.479 302.16 211.34 304.312 219.087C305.603 224.252 308.186 226.835 310.338 225.544C315.933 222.1 315.503 0 309.907 0C307.755 0 305.603 5.59555 305.603 12.9128V25.8256H253.952V12.9128C253.952 5.59555 252.23 0 249.647 0C247.065 0 245.343 11.6215 245.343 25.8256V51.6512H68.8683V25.8256C68.8683 11.6215 67.1466 0 64.564 0C62.4119 0 60.2597 5.59555 60.2597 12.9128V25.8256H8.60853V12.9128C8.60853 5.59555 6.88683 0 4.30427 0C1.72171 0 0 11.6215 0 25.8256ZM303.451 83.9332L253.952 86.5158V63.2727C253.952 50.7904 255.243 38.7384 256.965 37.0167C258.686 35.295 269.878 34.4341 281.93 35.295L303.451 36.5863V83.9332ZM245.343 236.735H68.8683V60.2597H245.343V236.735ZM58.1076 143.332H10.7607L8.17811 94.2635L58.1076 96.846V143.332ZM304.742 119.228L306.033 142.041H253.952V94.2635L303.451 96.846L304.742 119.228ZM59.3989 177.336L58.1076 200.148L8.60853 202.731V154.954H60.6902L59.3989 177.336ZM305.603 202.301H253.952V154.954H305.603V202.301ZM58.1076 260.408H10.7607L9.46939 241.469C7.31725 212.631 9.46939 210.479 35.295 211.77L58.1076 213.061V260.408Z" fill="white"/>
</svg>
