<svg width="182" height="237" viewBox="0 0 182 237" fill="none" xmlns="http://www.w3.org/2000/svg">
<path d="M77.8809 6.57141C73.075 10.3475 66.2094 13.437 62.7766 13.437C59.0005 13.437 54.8811 14.4669 53.508 15.84C52.1349 17.2131 45.6126 18.5862 39.4335 18.9295C27.4187 19.2728 13.6875 28.1981 13.6875 35.7502C13.6875 38.1532 10.5979 42.6159 6.82186 46.0487C-0.387033 52.571 -2.44672 66.6455 3.38905 70.0783C5.44874 71.4514 6.82186 68.0186 6.82186 61.8396C6.82186 54.974 9.22482 50.168 13.6875 47.7651C17.4636 45.7054 20.5531 41.9293 20.5531 39.1831C20.5531 29.9145 31.1948 23.0489 43.2096 25.1086C49.3886 26.4817 55.2244 25.7951 56.5975 23.7354C57.6274 22.019 62.09 20.3026 66.2094 20.3026C70.672 20.3026 76.5078 17.2131 79.9406 13.437C83.0301 9.66093 88.8659 6.57141 92.642 6.57141C96.4181 6.57141 102.254 9.66093 105.343 13.437C108.776 17.2131 114.612 20.3026 119.075 20.3026C123.194 20.3026 127.657 22.019 128.686 24.0787C130.06 26.1384 135.209 26.4817 141.045 25.4518C152.373 22.7056 161.298 28.1981 161.298 37.4667C161.298 40.5562 164.388 46.0487 168.164 49.4815C171.94 52.9143 175.029 59.4366 175.029 63.8993C175.029 68.0186 176.746 71.7947 178.462 71.7947C184.641 71.7947 182.238 52.571 175.029 46.0487C171.253 42.6159 168.164 37.1234 168.164 33.6906C168.164 25.4518 153.059 15.4967 144.134 17.8997C136.239 19.9593 118.388 14.1236 106.373 5.54156C95.3882 -2.01061 88.8659 -2.01061 77.8809 6.57141Z" fill="white"/>
<path d="M76.8512 28.5419C68.2691 35.0642 72.7318 39.1836 82.0004 33.3478C87.4928 29.915 89.8958 29.915 93.3286 33.3478C95.3883 35.4075 99.1644 37.4672 101.224 37.4672C105 37.1239 89.8958 23.736 86.1197 23.736C84.7466 23.736 80.6272 25.7957 76.8512 28.5419Z" fill="white"/>
<path d="M125.94 43.3028C124.567 44.3326 123.537 47.4221 123.537 50.1684C123.537 53.9445 124.91 53.9445 131.433 49.8251C136.582 46.3923 140.701 45.7057 144.134 47.7654C152.029 52.9146 155.805 51.8848 151 46.049C146.537 40.8998 130.059 38.8401 125.94 43.3028Z" fill="white"/>
<path d="M33.2544 46.7354C28.4485 51.198 31.1947 54.6308 37.0305 51.5413C40.8066 49.4816 45.2692 49.4816 48.3588 51.5413C55.9109 56.3472 59.687 55.3174 54.8811 49.4816C50.4184 44.3324 37.3738 42.616 33.2544 46.7354Z" fill="white"/>
<path d="M84.7465 49.8252C79.9406 54.9744 82.6868 56.6908 94.3584 56.6908C100.881 56.3476 105.687 54.6312 105.343 52.9147C103.97 48.7954 88.1793 46.3924 84.7465 49.8252Z" fill="white"/>
<path d="M21.2396 65.2728C6.47855 70.7653 6.13527 79.004 16.0904 159.332L25.7023 234.853L90.239 235.883C125.597 236.227 154.432 236.227 154.776 235.883C154.776 235.197 159.238 200.182 164.731 157.615C171.253 105.093 173.313 78.3175 170.91 74.1981C165.761 64.243 152.029 60.8102 140.701 66.6459C132.119 71.1086 129.716 71.1086 120.448 66.3027C111.179 61.84 109.119 61.84 99.8508 66.3027C90.9256 71.1086 88.8659 71.1086 79.254 66.3027C69.2989 61.1535 67.5825 61.4967 59.3438 66.6459C51.7916 71.7952 49.3886 71.7951 41.4932 68.0191C29.1351 61.84 30.1649 61.84 21.2396 65.2728ZM40.4633 74.5414C47.3289 81.407 48.0155 87.2428 53.508 189.197L55.9109 229.704H43.2096C35.6574 229.704 30.8515 227.988 30.8515 225.242C30.8515 223.182 27.0754 190.227 22.2695 152.466C11.971 70.7653 12.6576 80.3772 19.1799 73.8548C26.0455 66.6459 32.9112 66.9892 40.4633 74.5414ZM79.254 71.7952C85.4331 75.228 85.7764 79.6906 85.7764 152.466V229.704H73.7615C63.4631 229.704 61.7467 228.674 61.7467 221.809C61.7467 217.689 60.0303 183.705 57.6273 145.944C53.8513 80.7204 53.8513 77.6309 60.0303 73.1683C67.9258 67.3325 70.3287 67.3325 79.254 71.7952ZM121.478 74.8847C126.97 81.0637 126.97 86.5562 122.851 154.869L118.388 227.988H94.3584L93.3285 155.212C92.642 85.8697 92.9852 81.7503 99.5076 75.228C108.09 66.6459 113.925 66.6459 121.478 74.8847ZM162.328 74.5414C167.477 80.3772 167.477 86.2129 158.552 154.526L149.283 227.988H125.597L126.283 210.824C131.433 105.437 134.179 80.3772 141.388 74.1981C150.313 66.6459 155.462 66.6459 162.328 74.5414Z" fill="white"/>
</svg>
