<svg width="325" height="349" viewBox="0 0 325 349" fill="none" xmlns="http://www.w3.org/2000/svg">
<path d="M192.383 4.44367C163.526 12.4597 136.272 45.3252 136.272 72.1787C136.272 81.397 135.871 80.9962 128.256 68.9723C118.236 52.5395 101.001 43.722 78.5565 43.722C44.4886 43.722 18.0359 79.3931 27.6551 111.457C41.683 159.152 109.017 166.366 129.859 122.279C133.466 114.663 136.272 106.247 136.272 103.441C136.272 100.635 141.883 106.647 148.696 117.068C185.57 172.779 274.146 157.148 286.972 93.0202C290.178 76.1867 285.77 47.7299 278.555 38.1108C268.936 25.686 266.932 33.702 274.547 53.3411C297.393 113.06 233.265 166.366 177.955 133.902C159.518 123.08 144.288 97.8298 144.288 77.3891C144.288 59.7539 160.319 30.8964 175.951 20.8764C191.983 10.0549 221.241 8.45166 242.483 17.2692C254.106 22.0788 256.511 22.4796 256.511 17.67C256.511 12.4596 224.447 -0.766711 212.824 0.0348865C209.217 0.0348865 199.999 2.03888 192.383 4.44367ZM111.422 62.9603C126.652 77.3891 130.66 91.8178 124.648 112.259C113.827 148.731 61.3222 155.545 42.4846 123.481C34.0679 109.052 33.2663 92.6194 40.0798 75.7859C50.9014 50.1347 90.1797 42.9204 111.422 62.9603Z" fill="white"/>
<path d="M70.9413 86.2068C64.9293 92.6196 68.1357 107.449 76.5525 109.854C88.5765 113.862 99.7988 102.239 93.7868 92.6196C88.9773 85.4052 75.7509 81.3972 70.9413 86.2068ZM84.1677 97.8299C84.1677 101.036 82.5645 103.842 80.1597 103.842C78.1557 103.842 76.1517 101.036 76.1517 97.8299C76.1517 94.6236 78.1557 91.818 80.1597 91.818C82.5645 91.818 84.1677 94.6236 84.1677 97.8299Z" fill="white"/>
<path d="M199.999 63.3606C191.983 69.7734 191.181 72.579 194.387 82.1981C197.995 91.8173 200.8 93.8213 212.423 93.8213C224.046 93.8213 226.852 91.8173 230.459 82.1981C233.666 72.579 232.864 69.7734 224.848 63.3606C219.638 59.3526 214.027 55.7454 212.423 55.7454C210.82 55.7454 205.209 59.3526 199.999 63.3606ZM222.443 77.7894C222.443 87.8093 206.411 91.0157 202.804 81.7973C199.197 72.1782 203.606 66.9678 213.626 68.571C219.237 69.3726 222.443 72.579 222.443 77.7894Z" fill="white"/>
<path d="M288.575 152.338L270.539 164.362L269.337 153.941C266.932 134.302 260.519 144.322 260.519 167.969C260.519 181.195 262.122 192.017 264.527 192.017C266.932 192.017 268.535 188.41 268.535 184.001C268.535 174.782 309.016 146.326 313.024 152.738C315.829 157.147 317.032 244.121 314.226 248.529C311.822 252.537 272.142 228.089 269.738 221.275C264.527 208.049 260.519 218.469 260.519 244.121V272.177L209.618 272.577C181.161 272.978 132.264 272.978 100.2 272.978H42.0839L40.8815 243.319C39.6791 212.858 33.6671 198.83 29.2583 215.263C27.6551 221.676 24.4487 224.081 18.4367 223.279C11.2224 222.077 10.02 219.271 10.02 200.033C10.02 181.997 11.2224 177.989 17.2344 176.786C21.2423 175.985 27.2543 178.79 30.0599 182.798C34.8695 189.211 35.6711 189.211 38.0759 183.6C41.6831 173.981 38.8775 147.929 34.0679 146.726C32.0639 146.326 29.6591 150.734 28.8575 156.746C27.6551 165.163 25.2503 167.969 18.4367 167.969C4.40879 167.969 0 175.985 0 200.033C0 224.481 4.40879 232.097 18.8375 232.097C27.2543 232.097 28.0559 234.101 28.0559 251.736C28.0559 281.395 34.0679 284.2 94.9893 284.2C153.506 284.2 154.308 285.002 123.847 321.475C112.624 335.102 105.41 346.725 107.815 347.527C111.823 348.729 122.644 337.907 139.077 316.665C143.085 311.455 143.887 313.459 144.288 329.09C144.288 339.912 146.292 348.328 148.296 348.328C150.7 348.328 152.304 339.912 152.304 329.09V310.252L169.939 330.292C194.788 358.348 196.391 351.134 172.344 319.872C161.522 305.844 152.304 291.816 152.304 289.01C152.304 285.403 165.129 284.2 204.007 284.2C264.126 284.2 268.535 282.196 268.535 253.74C268.535 244.121 269.337 236.105 270.539 236.105C271.341 236.105 280.96 241.315 291.381 248.129C323.445 268.569 324.647 266.966 324.647 200.033C324.647 173.981 323.445 149.933 322.242 146.326C318.635 137.107 309.016 138.71 288.575 152.338Z" fill="white"/>
<path d="M64.1279 188.01C64.1279 190.415 84.1679 192.018 116.232 192.018C148.296 192.018 168.336 190.415 168.336 188.01C168.336 185.605 148.296 184.002 116.232 184.002C84.1679 184.002 64.1279 185.605 64.1279 188.01Z" fill="white"/>
<path d="M180.359 188.01C180.359 190.014 183.165 192.018 186.371 192.018C189.578 192.018 192.383 190.014 192.383 188.01C192.383 185.605 189.578 184.002 186.371 184.002C183.165 184.002 180.359 185.605 180.359 188.01Z" fill="white"/>
<path d="M112.224 212.057C112.224 214.462 124.248 216.065 140.28 216.065C156.312 216.065 168.336 214.462 168.336 212.057C168.336 209.652 156.312 208.049 140.28 208.049C124.248 208.049 112.224 209.652 112.224 212.057Z" fill="white"/>
</svg>
